<?xml version="1.0" encoding="utf-8"?>
<!-- Generator: Adobe Illustrator 16.0.0, SVG Export Plug-In . SVG Version: 6.00 Build 0)  -->
<!DOCTYPE svg PUBLIC "-//W3C//DTD SVG 1.1//EN" "http://www.w3.org/Graphics/SVG/1.1/DTD/svg11.dtd">
<svg version="1.1" id="Layer_1" xmlns="http://www.w3.org/2000/svg" xmlns:xlink="http://www.w3.org/1999/xlink" x="0px" y="0px"
	 width="100px" height="82.502px" viewBox="0 0 100 82.502" enable-background="new 0 0 100 82.502" xml:space="preserve">
<path fill="#FFFFFF" d="M33.597,56.992c0.439,0.947,0.988,1.574,1.72,1.954l0.784-0.233l0.386-2.589l-2.894,0.863
	C33.596,56.987,33.596,56.99,33.597,56.992z"/>
<path fill="#FFFFFF" d="M33.026,55.378l3.739-1.113l0.386-2.59l-4.148,1.236C32.826,53.779,32.834,54.562,33.026,55.378z"/>
<path fill="#FFFFFF" d="M33.642,50.983l3.782-1.127l0.271-1.818c-0.303,0.051-0.599,0.096-0.909,0.15
	C35.384,48.426,34.111,50.084,33.642,50.983z"/>
<path fill="#FFFFFF" d="M48.28,58.36c-0.924,0.016-3.034,0.687-5.076,1.34c-2.236,0.713-4.024,1.251-5.39,1.496
	c-0.87,0.155-1.57,0.193-2.095,0.078c-0.008-0.002-0.018-0.002-0.027-0.004c-1.806-0.438-3.101-1.551-3.964-3.409
	c-1.176-2.529-1.222-4.563-0.147-7.329c0.078-0.206,0.212-0.462,0.368-0.736c0.173-0.305,0.385-0.634,0.646-0.977
	c0.883-1.163,2.226-2.389,3.845-2.664c0.535-0.09,1.057-0.174,1.572-0.257l0.944-6.333c-3.064,0.29-5.994,0.596-7.652,0.854
	c-4.177,0.651-6.928,6.033-9.349,9.324c-1.876,2.554-3.65,4.962-5.397,6.757c-4.577,4.706-8.424,6.479-9.788,7.001l5.798,13.214
	l0.117,0.012c2.384,0.208,8.378,0.543,12.587-0.873c1.973-0.665,3.919-1.82,6.172-3.161c1.84-1.096,3.924-2.339,6.41-3.539
	c0.049-0.022,0.097-0.047,0.146-0.069c1.123-0.542,2.244-1.07,3.343-1.579c4.957-2.297,9.404-4.174,11.225-4.928
	C51.776,60.419,50.348,58.322,48.28,58.36z"/>
<path fill="#FFFFFF" d="M74.739,33.329c0-5.107-4.146-9.254-9.253-9.254c-3.735,0-6.958,2.223-8.417,5.415l4.988,0.745
	c0.845-0.936,2.064-1.525,3.431-1.525c2.56,0,4.618,2.06,4.618,4.62c0,1.815-1.034,3.374-2.548,4.129l-0.749,5.029
	C71.288,41.846,74.739,37.989,74.739,33.329z"/>
<path fill="#FFFFFF" d="M83.979,33.329c0-10.228-8.267-18.492-18.493-18.492c-8.411,0-15.488,5.59-17.74,13.263l4.63,0.689
	c1.88-5.435,7.033-9.332,13.11-9.332c7.668,0,13.872,6.204,13.872,13.872c0,7.461-5.874,13.533-13.254,13.858l-0.69,4.631
	c0.023,0,0.047,0.002,0.072,0.002C75.714,51.82,83.979,43.557,83.979,33.329z"/>
<path fill="#FFFFFF" d="M65.486,5.585c-15.336,0-27.745,12.408-27.745,27.744c0,1.466,0.115,2.905,0.333,4.31
	c0.228-0.021,0.457-0.044,0.692-0.065l0.554-0.053l1.055-7.074c0.215-1.43,1.322-2.554,2.697-2.835
	c2.544-10.007,11.612-17.407,22.412-17.407c12.774,0,23.124,10.351,23.124,23.125c0,12.776-10.35,23.123-23.124,23.123
	c-0.256,0-0.508-0.012-0.761-0.019l-0.688,4.601c0.479,0.024,0.963,0.037,1.448,0.037C80.822,61.073,93.23,48.664,93.23,33.329
	S80.822,5.585,65.486,5.585z"/>
<path fill="#FFFFFF" d="M64.823,32.672l-20.868-3.113c-0.768-0.114-1.482,0.416-1.597,1.184l-4.221,28.284
	c1.418-0.326,3.193-0.892,4.441-1.29c2.756-0.881,4.512-1.419,5.669-1.437c0.275-0.006,0.553,0.014,0.825,0.054
	c2.325,0.347,4.255,2.307,5.428,5.517l0.678,1.854l-1.823,0.757c-1.194,0.496-4.4,1.843-8.269,3.584l14.141,2.11
	c0.769,0.114,1.484-0.415,1.6-1.183l5.18-34.721C66.12,33.502,65.588,32.786,64.823,32.672z"/>
</svg>
