<?xml version="1.0" encoding="utf-8"?>
<!-- Generator: Adobe Illustrator 16.0.0, SVG Export Plug-In . SVG Version: 6.00 Build 0)  -->
<!DOCTYPE svg PUBLIC "-//W3C//DTD SVG 1.1//EN" "http://www.w3.org/Graphics/SVG/1.1/DTD/svg11.dtd">
<svg version="1.1" id="Layer_1" xmlns="http://www.w3.org/2000/svg" xmlns:xlink="http://www.w3.org/1999/xlink" x="0px" y="0px"
	 width="100px" height="100px" viewBox="0 0 100 100" enable-background="new 0 0 100 100" xml:space="preserve">
<g>
	<path fill="#FFFFFF" d="M21.81,60.287V18.564c0-1.021-0.83-1.846-1.846-1.846s-1.846,0.826-1.846,1.846v41.723H21.81z"/>
	<path fill="#FFFFFF" d="M18.117,74.939v6.418c0,1.023,0.83,1.847,1.846,1.847s1.846-0.822,1.846-1.847v-6.418H18.117z"/>
</g>
<g>
	<path fill="#FFFFFF" d="M47.654,44.408v36.949c0,1.023,0.83,1.847,1.846,1.847c1.016,0,1.846-0.822,1.846-1.847V44.408H47.654z"/>
	<path fill="#FFFFFF" d="M51.346,29.759V18.564c0-1.021-0.828-1.846-1.846-1.846c-1.017,0-1.846,0.826-1.846,1.846v11.195H51.346z"
		/>
</g>
<g>
	<path fill="#FFFFFF" d="M80.883,47.729V18.564c0-1.021-0.828-1.846-1.846-1.846s-1.848,0.826-1.848,1.846v29.165H80.883z"/>
	<path fill="#FFFFFF" d="M77.189,62.379v18.979c0,1.023,0.83,1.847,1.848,1.847s1.846-0.822,1.846-1.847V62.379H77.189z"/>
</g>
<path fill="#FFFFFF" d="M30.427,67.613c0,2.885-2.336,5.234-5.235,5.234H14.735c-2.899,0-5.235-2.351-5.235-5.234l0,0
	c0-2.893,2.336-5.234,5.235-5.234h10.456C28.09,62.379,30.427,64.723,30.427,67.613L30.427,67.613z"/>
<path fill="#FFFFFF" d="M59.963,37.082c0,2.892-2.343,5.235-5.234,5.235H44.265c-2.892,0-5.235-2.344-5.235-5.235l0,0
	c0-2.888,2.344-5.232,5.235-5.232h10.463C57.62,31.85,59.963,34.194,59.963,37.082L59.963,37.082z"/>
<path fill="#FFFFFF" d="M89.5,55.052c0,2.892-2.344,5.235-5.234,5.235H73.803c-2.893,0-5.236-2.344-5.236-5.235l0,0
	c0-2.888,2.345-5.231,5.236-5.231h10.463C87.156,49.82,89.5,52.164,89.5,55.052L89.5,55.052z"/>
</svg>
